# xmcd
#
# Track frame offsets: 
#        150
#        19425
#        41787
#        58627
#        79852
#        102230
#        122287
#        142012
#        157715
#        178532
#        192167
#        209260
#        230460
#        250410
#        262985
#
# Disc length: 3695 seconds
#
# Revision: 2
# Processed by: cddbd v1.5.2PL0 Copyright (c) Steve Scherf et al.
# Submitted via: ExactAudioCopy v0.99pb5
#
DISCID=c80e6d0f
DTITLE=Abba - Super Trouper
DYEAR=1980
DGENRE=Pop
TTITLE0=01 Super Trouper - 01 Super Trouper
TTITLE1=02 The Winner Takes It All - 02 The Winner Takes It All
TTITLE2=03 On and on and On - 03 On and on and On
TTITLE3=04 Andante - Andante
TTITLE4=05 Me and I - 05 Me and I
TTITLE5=06 Happy New Year - 06 Happy New Year
TTITLE6=07 Our Last Summer - 07 Our Last Summer
TTITLE7=08 The Piper - 08 The Piper
TTITLE8=09 Lay All Your Love on Me - 09 Lay All Your Love on Me
TTITLE9=10 The Way Old Friends Do - 10 The Way Old Friends Do
TTITLE10=11 Elaine (Bonus track - 11 Elaine (Bonus track)
TTITLE11=12 Andante, Andante (Spanish Version) (Bonus Track)
TTITLE12=13 Felicidad (Bonus track - 13 Felicidad (Bonus track)
TTITLE13=19 - ABBA - Waterloo
TTITLE14=13 Ring Ring (Bara Du Slog En Signal) (Swedish Version) - 13 
TTITLE14=Ring Ring (Bara Du Slog En Signal) (Swedish Version)
EXTD=
EXTT0=
EXTT1=
EXTT2=
EXTT3=
EXTT4=
EXTT5=
EXTT6=
EXTT7=
EXTT8=
EXTT9=
EXTT10=
EXTT11=
EXTT12=
EXTT13=
EXTT14=
PLAYORDER=
